<?xml version="1.0" encoding="UTF-8" standalone="no"?>
<!-- Created with Inkscape (http://www.inkscape.org/) -->

<svg
   width="200"
   height="200"
   viewBox="0 0 200 200"
   version="1.1"
   id="svg1"
   inkscape:version="1.3.2 (091e20e, 2023-11-25, custom)"
   sodipodi:docname="population_editing.svg"
   xml:space="preserve"
   inkscape:export-filename="population_editing.png"
   inkscape:export-xdpi="96"
   inkscape:export-ydpi="96"
   xmlns:inkscape="http://www.inkscape.org/namespaces/inkscape"
   xmlns:sodipodi="http://sodipodi.sourceforge.net/DTD/sodipodi-0.dtd"
   xmlns:xlink="http://www.w3.org/1999/xlink"
   xmlns="http://www.w3.org/2000/svg"
   xmlns:svg="http://www.w3.org/2000/svg"><sodipodi:namedview
     id="namedview1"
     pagecolor="#505050"
     bordercolor="#ffffff"
     borderopacity="1"
     inkscape:showpageshadow="0"
     inkscape:pageopacity="0"
     inkscape:pagecheckerboard="1"
     inkscape:deskcolor="#505050"
     inkscape:document-units="mm"
     showgrid="true"
     inkscape:zoom="4"
     inkscape:cx="89.25"
     inkscape:cy="114.625"
     inkscape:window-width="1920"
     inkscape:window-height="1001"
     inkscape:window-x="-9"
     inkscape:window-y="-9"
     inkscape:window-maximized="1"
     inkscape:current-layer="layer1"
     showguides="false"
     inkscape:export-bgcolor="#ffffff00"><inkscape:grid
       id="grid2"
       units="px"
       originx="0"
       originy="0"
       spacingx="10"
       spacingy="10"
       empcolor="#0099e5"
       empopacity="0.30196078"
       color="#0099e5"
       opacity="0.14901961"
       empspacing="5"
       dotted="false"
       gridanglex="30"
       gridanglez="30"
       visible="true" /><sodipodi:guide
       position="135.125,119.25"
       orientation="0,-1"
       id="guide17"
       inkscape:locked="false" /></sodipodi:namedview><defs
     id="defs1"><linearGradient
       id="linearGradient15"
       inkscape:collect="always"><stop
         style="stop-color:#ffffff;stop-opacity:1;"
         offset="0.42322099"
         id="stop15" /><stop
         style="stop-color:#cccecf;stop-opacity:0.58540374;"
         offset="0.82896382"
         id="stop16" /></linearGradient><linearGradient
       id="linearGradient12"
       inkscape:collect="always"><stop
         style="stop-color:#003512;stop-opacity:1;"
         offset="0.38576776"
         id="stop14" /><stop
         style="stop-color:#007e12;stop-opacity:0.70807451;"
         offset="0.95505619"
         id="stop13" /></linearGradient><linearGradient
       id="linearGradient11"
       inkscape:collect="always"><stop
         style="stop-color:#daea0b;stop-opacity:1;"
         offset="0.52184772"
         id="stop11" /><stop
         style="stop-color:#daea56;stop-opacity:0.42857143;"
         offset="1"
         id="stop12" /></linearGradient><linearGradient
       id="linearGradient9"
       inkscape:collect="always"><stop
         style="stop-color:#00149a;stop-opacity:1;"
         offset="0"
         id="stop9" /><stop
         style="stop-color:#008cff;stop-opacity:1;"
         offset="1"
         id="stop10" /></linearGradient><linearGradient
       id="swatch4"
       inkscape:swatch="solid"><stop
         style="stop-color:#000000;stop-opacity:1;"
         offset="0"
         id="stop4" /></linearGradient><linearGradient
       id="linearGradient74"
       inkscape:collect="always"><stop
         style="stop-color:#227c33;stop-opacity:0.86314362;"
         offset="0.2201232"
         id="stop74" /><stop
         style="stop-color:#40aa33;stop-opacity:0.94561934;"
         offset="1"
         id="stop75" /></linearGradient><inkscape:path-effect
       effect="spiro"
       id="path-effect73"
       is_visible="true"
       lpeversion="1" /><inkscape:path-effect
       effect="simplify"
       id="path-effect72"
       is_visible="true"
       lpeversion="1.3"
       threshold="5000"
       steps="1"
       smooth_angles="360"
       helper_size="0"
       simplify_individual_paths="false"
       simplify_just_coalesce="false" /><inkscape:path-effect
       effect="spiro"
       id="path-effect71"
       is_visible="true"
       lpeversion="1" /><inkscape:path-effect
       effect="simplify"
       id="path-effect70"
       is_visible="true"
       lpeversion="1.3"
       threshold="5000"
       steps="1"
       smooth_angles="360"
       helper_size="0"
       simplify_individual_paths="false"
       simplify_just_coalesce="false" /><inkscape:path-effect
       effect="spiro"
       id="path-effect69"
       is_visible="true"
       lpeversion="1" /><inkscape:path-effect
       effect="simplify"
       id="path-effect68"
       is_visible="true"
       lpeversion="1.3"
       threshold="5000"
       steps="1"
       smooth_angles="360"
       helper_size="0"
       simplify_individual_paths="false"
       simplify_just_coalesce="false" /><inkscape:path-effect
       effect="spiro"
       id="path-effect67"
       is_visible="true"
       lpeversion="1" /><inkscape:path-effect
       effect="simplify"
       id="path-effect66"
       is_visible="true"
       lpeversion="1.3"
       threshold="5000"
       steps="1"
       smooth_angles="360"
       helper_size="0"
       simplify_individual_paths="false"
       simplify_just_coalesce="false" /><inkscape:path-effect
       effect="spiro"
       id="path-effect65"
       is_visible="true"
       lpeversion="1" /><inkscape:path-effect
       effect="simplify"
       id="path-effect64"
       is_visible="true"
       lpeversion="1.3"
       threshold="5000"
       steps="1"
       smooth_angles="360"
       helper_size="0"
       simplify_individual_paths="false"
       simplify_just_coalesce="false" /><inkscape:path-effect
       effect="spiro"
       id="path-effect63"
       is_visible="true"
       lpeversion="1" /><inkscape:path-effect
       effect="simplify"
       id="path-effect62"
       is_visible="true"
       lpeversion="1.3"
       threshold="5000"
       steps="1"
       smooth_angles="360"
       helper_size="0"
       simplify_individual_paths="false"
       simplify_just_coalesce="false" /><inkscape:path-effect
       effect="spiro"
       id="path-effect61"
       is_visible="true"
       lpeversion="1" /><inkscape:path-effect
       effect="simplify"
       id="path-effect60"
       is_visible="true"
       lpeversion="1.3"
       threshold="5000"
       steps="1"
       smooth_angles="360"
       helper_size="0"
       simplify_individual_paths="false"
       simplify_just_coalesce="false" /><inkscape:path-effect
       effect="spiro"
       id="path-effect59"
       is_visible="true"
       lpeversion="1" /><inkscape:path-effect
       effect="simplify"
       id="path-effect58"
       is_visible="true"
       lpeversion="1.3"
       threshold="5000"
       steps="1"
       smooth_angles="360"
       helper_size="0"
       simplify_individual_paths="false"
       simplify_just_coalesce="false" /><inkscape:path-effect
       effect="simplify"
       id="path-effect57"
       is_visible="true"
       lpeversion="1.3"
       threshold="5000"
       steps="1"
       smooth_angles="360"
       helper_size="0"
       simplify_individual_paths="false"
       simplify_just_coalesce="false" /><radialGradient
       inkscape:collect="always"
       xlink:href="#linearGradient74"
       id="radialGradient75"
       cx="99.998245"
       cy="96.045715"
       fx="99.998245"
       fy="96.045715"
       r="95.552666"
       gradientTransform="matrix(1,0,0,0.58127591,0,41.894606)"
       gradientUnits="userSpaceOnUse" /><linearGradient
       inkscape:collect="always"
       xlink:href="#linearGradient9"
       id="linearGradient10"
       x1="9.7595921"
       y1="95.06002"
       x2="61.395035"
       y2="102.56002"
       gradientUnits="userSpaceOnUse" /><radialGradient
       inkscape:collect="always"
       xlink:href="#linearGradient11"
       id="radialGradient12"
       cx="99.725815"
       cy="158.98177"
       fx="99.725815"
       fy="158.98177"
       r="37.687756"
       gradientTransform="matrix(0.42252423,-0.62972935,1.0639396,0.71386267,-111.55776,95.864877)"
       gradientUnits="userSpaceOnUse" /><radialGradient
       inkscape:collect="always"
       xlink:href="#linearGradient15"
       id="radialGradient16"
       cx="91.430351"
       cy="34.555054"
       fx="91.430351"
       fy="34.555054"
       r="28.108596"
       gradientTransform="matrix(-0.89114391,0.88317905,-0.79812739,-0.80532519,200.48727,-5.187444)"
       gradientUnits="userSpaceOnUse" /><radialGradient
       inkscape:collect="always"
       xlink:href="#linearGradient12"
       id="radialGradient17"
       cx="184.79857"
       cy="97.43042"
       fx="184.79857"
       fy="97.43042"
       r="33.931793"
       gradientTransform="matrix(-1.9589549,-1.5467074,1.0975296,-1.3900568,439.87784,519.16033)"
       gradientUnits="userSpaceOnUse" /></defs><g
     inkscape:label="Vrstva 1"
     inkscape:groupmode="layer"
     id="layer1"><path
       style="fill:url(#radialGradient75);fill-rule:evenodd;stroke:#000000;stroke-width:2.06740157;stroke-linecap:round;stroke-dasharray:none;paint-order:markers fill stroke;fill-opacity:0.86314362"
       d="M 99.952203,154.37636 6.6157687,94.500634 c 0,0 46.7295113,-22.653796 49.7634493,-25.327363 3.033938,-2.673566 13.018519,-14.560745 18.962109,-17.950799 5.943589,-3.390054 12.056015,-8.802736 24.610876,-3.390054 12.554857,5.412683 12.138297,14.223922 18.667287,18.667287 6.52899,4.443365 74.66915,30.990319 74.66915,30.990319 z"
       id="path9" /><path
       style="fill:url(#radialGradient16);stroke-width:0.933543;stroke-linecap:round;stroke-linejoin:round;paint-order:markers fill stroke;fill-opacity:1"
       d="m 66.703781,59.931824 c 6.230201,-5.891603 6.568799,-6.975116 13.543915,-10.496534 6.975117,-3.521418 7.24526,-2.815935 9.819339,-2.844222 6.162481,-0.06772 10.709675,2.131332 14.390405,4.926599 3.65417,2.775093 5.0076,4.507749 7.73705,8.961051 2.72944,4.453302 5.21946,6.464471 5.21946,6.464471 0,0 -7.51794,7.661595 -17.573786,5.746197 -10.055844,-1.915399 -18.712113,-1.245234 -26.364425,0.786353 -7.652312,2.031587 -12.121804,-3.521418 -12.257243,-5.214407 -0.135439,-1.69299 0.406317,-3.047381 0.406317,-3.047381 z"
       id="path1"
       sodipodi:nodetypes="csssscssscc" /><path
       style="fill:url(#radialGradient12);fill-opacity:1;stroke-width:0.933543;stroke-linecap:round;stroke-linejoin:round;paint-order:markers fill stroke;stroke:none"
       d="M 99.971848,153.17205 52.6689,122.82638 c 0,0 13.683032,-0.66455 29.50171,-4.07165 12.450092,-2.68156 22.02709,-3.06464 36.39258,3.83079 5.80207,2.785 9.48122,13.45568 9.48122,13.45568 z"
       id="path2"
       sodipodi:nodetypes="ccsscc" /><path
       style="fill:none;fill-opacity:1;stroke:#00559a;stroke-width:0.933543;stroke-linecap:round;stroke-linejoin:round;stroke-opacity:1;paint-order:markers fill stroke"
       d="M 89.449125,70.486677 C 85.809867,80.446751 87.150647,79.872131 76.615953,86.192947 66.08126,92.513763 48.283314,94.680789 43.303277,97.553888"
       id="path4"
       sodipodi:nodetypes="csc" /><path
       style="fill:none;fill-opacity:1;stroke:#00559a;stroke-width:0.933543;stroke-linecap:round;stroke-linejoin:round;stroke-opacity:1;paint-order:markers fill stroke"
       d="m 83.319849,82.553689 c 22.218631,-3.830797 18.498571,10.558461 25.777091,7.302283 7.27851,-3.256178 25.02851,2.507607 25.02851,2.507607"
       id="path5"
       sodipodi:nodetypes="csc" /><path
       style="fill:url(#linearGradient10);fill-opacity:1;stroke:none;stroke-width:0.933543;stroke-linecap:round;stroke-linejoin:miter;stroke-opacity:1;paint-order:markers fill stroke"
       d="M 8.7314471,94.626747 C 42.538236,78.058547 38.32172,80.064609 38.32172,80.064609 c 0,0 6.392134,2.598334 8.826427,6.731912 4.485661,7.616924 11.617191,-1.486692 16.118378,5.217204 4.501187,6.703899 -6.953799,21.856735 -10.497287,24.250985 -3.543488,2.39425 -5.10706,3.33624 -5.10706,3.33624 z"
       id="path7"
       sodipodi:nodetypes="ccssscc" /><path
       style="fill:url(#radialGradient17);fill-opacity:1;stroke:none;stroke-width:0.933543;stroke-linecap:round;stroke-linejoin:miter;stroke-opacity:1;paint-order:markers fill stroke"
       d="M 190.97642,97.6872 126.97237,71.600527 c 0,0 5.43338,10.512248 3.22367,16.699432 -2.20971,6.187184 -8.22012,10.871767 -6.8943,16.440231 1.32583,5.56847 14.91075,25.11057 14.91075,25.11057 z"
       id="path12"
       sodipodi:nodetypes="ccsscc" /><circle
       style="fill:#800080;fill-opacity:1;stroke:none;stroke-width:0.943522;stroke-linecap:round;stroke-linejoin:miter;stroke-opacity:1;paint-order:markers fill stroke"
       id="path17-1"
       cx="68.121559"
       cy="79.28273"
       r="1.2506636" /><circle
       style="fill:#000080;fill-opacity:1;stroke:none;stroke-width:0.943522;stroke-linecap:round;stroke-linejoin:miter;stroke-opacity:1;paint-order:markers fill stroke"
       id="path17-6"
       cx="114.61324"
       cy="76.250656"
       r="1.2506636" /><circle
       style="fill:#ff00ff;fill-opacity:1;stroke:none;stroke-width:0.943522;stroke-linecap:round;stroke-linejoin:miter;stroke-opacity:1;paint-order:markers fill stroke"
       id="path17-48"
       cx="55.99329"
       cy="81.3041"
       r="1.2506636" /><circle
       style="fill:#000080;fill-opacity:1;stroke:none;stroke-width:0.943522;stroke-linecap:round;stroke-linejoin:miter;stroke-opacity:1;paint-order:markers fill stroke"
       id="path17-63"
       cx="118.65598"
       cy="78.272049"
       r="1.2506636" /><circle
       style="fill:#000080;fill-opacity:1;stroke:none;stroke-width:0.943522;stroke-linecap:round;stroke-linejoin:miter;stroke-opacity:1;paint-order:markers fill stroke"
       id="path17-53"
       cx="111.58115"
       cy="78.272049"
       r="1.2506636" /><circle
       style="fill:#ff0000;fill-opacity:1;stroke:none;stroke-width:0.943522;stroke-linecap:round;stroke-linejoin:miter;stroke-opacity:1;paint-order:markers fill stroke"
       id="path17-87"
       cx="158.07286"
       cy="98.485817"
       r="1.2506636" /><circle
       style="fill:#ff0000;fill-opacity:1;stroke:none;stroke-width:0.943522;stroke-linecap:round;stroke-linejoin:miter;stroke-opacity:1;paint-order:markers fill stroke"
       id="path17-49"
       cx="158.07286"
       cy="103.53924"
       r="1.2506636" /><circle
       style="fill:#ff0000;fill-opacity:1;stroke:none;stroke-width:0.943522;stroke-linecap:round;stroke-linejoin:miter;stroke-opacity:1;paint-order:markers fill stroke"
       id="path17-70"
       cx="153.01939"
       cy="101.51786"
       r="1.2506636" /><circle
       style="fill:#00ffff;fill-opacity:1;stroke:none;stroke-width:0.943522;stroke-linecap:round;stroke-linejoin:miter;stroke-opacity:1;paint-order:markers fill stroke"
       id="path17-32"
       cx="105.51701"
       cy="137.90265"
       r="1.2506636" /><circle
       style="fill:#00ffff;fill-opacity:1;stroke:none;stroke-width:0.943522;stroke-linecap:round;stroke-linejoin:miter;stroke-opacity:1;paint-order:markers fill stroke"
       id="path17-74"
       cx="102.48495"
       cy="137.90265"
       r="1.2506636" /><circle
       style="fill:#00ffff;fill-opacity:1;stroke:none;stroke-width:1.03885;stroke-linecap:round;stroke-linejoin:miter;stroke-opacity:1;paint-order:markers fill stroke"
       id="path17-67"
       cx="104.38"
       cy="133.98625"
       r="1.3769994" /><circle
       style="fill:#ffd42a;fill-opacity:1;stroke:none;stroke-width:0.943522;stroke-linecap:round;stroke-linejoin:miter;stroke-opacity:1;paint-order:markers fill stroke"
       id="path17-77"
       cx="32.747452"
       cy="99.496506"
       r="1.2506636" /><circle
       style="fill:#ffd42a;fill-opacity:1;stroke:none;stroke-width:0.943522;stroke-linecap:round;stroke-linejoin:miter;stroke-opacity:1;paint-order:markers fill stroke"
       id="path17-2"
       cx="34.768833"
       cy="96.464409"
       r="1.2506636" /><circle
       style="fill:#ffd42a;fill-opacity:1;stroke:none;stroke-width:0.943522;stroke-linecap:round;stroke-linejoin:miter;stroke-opacity:1;paint-order:markers fill stroke"
       id="path17-62"
       cx="36.790203"
       cy="100.50718"
       r="1.2506636" /><circle
       style="fill:#ffd42a;fill-opacity:1;stroke:none;stroke-width:0.943522;stroke-linecap:round;stroke-linejoin:miter;stroke-opacity:1;paint-order:markers fill stroke"
       id="path17-37"
       cx="40.832962"
       cy="97.475136"
       r="1.2506636" /><circle
       style="fill:#ffd42a;fill-opacity:1;stroke:none;stroke-width:0.943522;stroke-linecap:round;stroke-linejoin:miter;stroke-opacity:1;paint-order:markers fill stroke"
       id="path17-37-4"
       cx="21.629875"
       cy="95.453743"
       r="1.2506636" /><circle
       style="fill:#ffd42a;fill-opacity:1;stroke:none;stroke-width:0.943522;stroke-linecap:round;stroke-linejoin:miter;stroke-opacity:1;paint-order:markers fill stroke"
       id="path17-37-7"
       cx="26.683319"
       cy="96.464409"
       r="1.2506636" /><circle
       style="fill:#ffd42a;fill-opacity:1;stroke:none;stroke-width:0.943522;stroke-linecap:round;stroke-linejoin:miter;stroke-opacity:1;paint-order:markers fill stroke"
       id="path17-37-0"
       cx="27.69401"
       cy="100.50718"
       r="1.2506636" /><circle
       style="fill:#ffd42a;fill-opacity:1;stroke:none;stroke-width:0.943522;stroke-linecap:round;stroke-linejoin:miter;stroke-opacity:1;paint-order:markers fill stroke"
       id="path17-37-2"
       cx="31.736761"
       cy="92.421684"
       r="1.2506636" /><circle
       style="fill:#ffd42a;fill-opacity:1;stroke:none;stroke-width:0.943522;stroke-linecap:round;stroke-linejoin:miter;stroke-opacity:1;paint-order:markers fill stroke"
       id="path17-89"
       cx="31.736761"
       cy="97.475136"
       r="1.2506636" /><circle
       style="fill:#800080;fill-opacity:1;stroke:none;stroke-width:0.943522;stroke-linecap:round;stroke-linejoin:miter;stroke-opacity:1;paint-order:markers fill stroke"
       id="path17-15"
       cx="83.281876"
       cy="98.485817"
       r="1.2506636" /><circle
       style="fill:#800080;fill-opacity:1;stroke:none;stroke-width:0.943522;stroke-linecap:round;stroke-linejoin:miter;stroke-opacity:1;paint-order:markers fill stroke"
       id="path17-1-2"
       cx="135.45869"
       cy="105.18161"
       r="1.2506636" /><circle
       style="fill:#800080;fill-opacity:1;stroke:none;stroke-width:0.943522;stroke-linecap:round;stroke-linejoin:miter;stroke-opacity:1;paint-order:markers fill stroke"
       id="path17-1-3"
       cx="86.061287"
       cy="122.616"
       r="1.2506636" /><circle
       style="fill:#800080;fill-opacity:1;stroke:none;stroke-width:0.943522;stroke-linecap:round;stroke-linejoin:miter;stroke-opacity:1;paint-order:markers fill stroke"
       id="path17-1-6"
       cx="139.50143"
       cy="85.978554"
       r="1.2506636" /><circle
       style="fill:#800080;fill-opacity:1;stroke:none;stroke-width:0.943522;stroke-linecap:round;stroke-linejoin:miter;stroke-opacity:1;paint-order:markers fill stroke"
       id="path17-1-26"
       cx="109.55984"
       cy="112.63545"
       r="1.2506636" /><circle
       style="fill:#000080;fill-opacity:1;stroke:none;stroke-width:0.943522;stroke-linecap:round;stroke-linejoin:miter;stroke-opacity:1;paint-order:markers fill stroke"
       id="path17-05"
       cx="112.4745"
       cy="81.868118"
       r="1.2506636" /><circle
       style="fill:#ff00ff;fill-opacity:1;stroke:none;stroke-width:0.943522;stroke-linecap:round;stroke-linejoin:miter;stroke-opacity:1;paint-order:markers fill stroke"
       id="path17-5"
       cx="53.971916"
       cy="78.272049"
       r="1.2506636" /><circle
       style="fill:#ff0000;fill-opacity:1;stroke:none;stroke-width:0.943522;stroke-linecap:round;stroke-linejoin:miter;stroke-opacity:1;paint-order:markers fill stroke"
       id="path17-8"
       cx="104.50633"
       cy="99.496506"
       r="1.2506636" /><circle
       style="fill:#ff0000;fill-opacity:1;stroke:none;stroke-width:0.943522;stroke-linecap:round;stroke-linejoin:miter;stroke-opacity:1;paint-order:markers fill stroke"
       id="path17-3"
       cx="106.37703"
       cy="102.52857"
       r="1.2506636" /><circle
       style="fill:#ff0000;fill-opacity:1;stroke:none;stroke-width:0.943522;stroke-linecap:round;stroke-linejoin:miter;stroke-opacity:1;paint-order:markers fill stroke"
       id="path17-3-6"
       cx="162.11563"
       cy="101.51786"
       r="1.2506636" /><circle
       style="fill:#ff0000;fill-opacity:1;stroke:none;stroke-width:0.943522;stroke-linecap:round;stroke-linejoin:miter;stroke-opacity:1;paint-order:markers fill stroke"
       id="path17-3-3"
       cx="155.04077"
       cy="106.57132"
       r="1.2506636" /><circle
       style="fill:#ff0000;fill-opacity:1;stroke:none;stroke-width:0.943522;stroke-linecap:round;stroke-linejoin:miter;stroke-opacity:1;paint-order:markers fill stroke"
       id="path17-3-1"
       cx="157.06213"
       cy="101.51786"
       r="1.2506636" /><circle
       style="fill:#00ffff;fill-opacity:1;stroke:none;stroke-width:0.943522;stroke-linecap:round;stroke-linejoin:miter;stroke-opacity:1;paint-order:markers fill stroke"
       id="path17-3-7"
       cx="108.54912"
       cy="134.87057"
       r="1.2506636" /><circle
       style="fill:#00ffff;fill-opacity:1;stroke:none;stroke-width:0.943522;stroke-linecap:round;stroke-linejoin:miter;stroke-opacity:1;paint-order:markers fill stroke"
       id="path17-3-16"
       cx="101.47431"
       cy="134.87057"
       r="1.2506636" /><circle
       style="fill:#ff0000;fill-opacity:1;stroke:none;stroke-width:0.943522;stroke-linecap:round;stroke-linejoin:miter;stroke-opacity:1;paint-order:markers fill stroke"
       id="path17-42"
       cx="102.66362"
       cy="101.84719"
       r="1.2506636" /><circle
       style="fill:#000080;fill-opacity:1;stroke:none;stroke-width:0.943522;stroke-linecap:round;stroke-linejoin:miter;stroke-opacity:1;paint-order:markers fill stroke"
       id="path17-01"
       cx="73.141724"
       cy="109.54206"
       r="1.2506636" /><circle
       style="fill:#000080;fill-opacity:1;stroke:none;stroke-width:0.943522;stroke-linecap:round;stroke-linejoin:miter;stroke-opacity:1;paint-order:markers fill stroke"
       id="path17-46"
       cx="76.207069"
       cy="108.59268"
       r="1.2506636" /><circle
       style="fill:#000080;fill-opacity:1;stroke:none;stroke-width:0.943522;stroke-linecap:round;stroke-linejoin:miter;stroke-opacity:1;paint-order:markers fill stroke"
       id="path17-38"
       cx="72.164307"
       cy="105.56063"
       r="1.2506636" /><circle
       style="fill:#000080;fill-opacity:1;stroke:none;stroke-width:0.943522;stroke-linecap:round;stroke-linejoin:miter;stroke-opacity:1;paint-order:markers fill stroke"
       id="path17-79"
       cx="72.164307"
       cy="112.63545"
       r="1.2506636" /><circle
       style="fill:#000080;fill-opacity:1;stroke:none;stroke-width:0.943522;stroke-linecap:round;stroke-linejoin:miter;stroke-opacity:1;paint-order:markers fill stroke"
       id="path17"
       cx="115.40514"
       cy="79.955475"
       r="1.2506636" /><circle
       style="fill:#ff0000;fill-opacity:1;stroke:none;stroke-width:0.943522;stroke-linecap:round;stroke-linejoin:miter;stroke-opacity:1;paint-order:markers fill stroke"
       id="path17-7"
       cx="107.85718"
       cy="99.485954"
       r="1.2506636" /><circle
       style="fill:#ff0000;fill-opacity:1;stroke:none;stroke-width:0.943522;stroke-linecap:round;stroke-linejoin:miter;stroke-opacity:1;paint-order:markers fill stroke"
       id="path17-9"
       cx="101.47427"
       cy="98.485817"
       r="1.2506636" /><circle
       style="fill:#000080;fill-opacity:1;stroke:none;stroke-width:0.943522;stroke-linecap:round;stroke-linejoin:miter;stroke-opacity:1;paint-order:markers fill stroke"
       id="path17-4"
       cx="70.142937"
       cy="110.61409"
       r="1.2506636" /><circle
       style="fill:#ff00ff;fill-opacity:1;stroke:none;stroke-width:0.943522;stroke-linecap:round;stroke-linejoin:miter;stroke-opacity:1;paint-order:markers fill stroke"
       id="path17-0"
       cx="51.950531"
       cy="81.3041"
       r="1.2506636" /><g
       id="g2"
       transform="matrix(0.05778929,0,0,0.05778929,56.280344,60.927885)"><path
         d="m 284.9,989.48 c -4.1406,10.906 -7.1641,21.035 -13.738,45.984 -8.5547,32.555 -9.3008,34.199 -22.441,47.914 -17.051,17.855 -29.977,26.207 -59.867,38.594 -15.348,6.3477 -21.996,10.055 -26.867,14.773 -6.5625,6.3477 -9.0859,12.469 -10.043,24 -1.1055,13.945 6.7188,25.309 23.328,33.863 3.4688,1.7656 8.4102,3.8281 11.074,4.5117 2.2695,0.6016 4.4297,0.8633 6.2773,0.8633 3.7305,0 6.2656,-1.1406 6.2656,-3.1562 0,-0.5899 -3.4688,-4.7266 -7.668,-9.2383 -10.715,-11.293 -13.285,-17.258 -10.488,-24.66 2.293,-5.832 12.406,-13.801 24.434,-19.199 5.7617,-2.5938 39.637,-16.094 47.242,-18.898 8.9883,-3.2891 15.59,-4.9688 21.07,-4.9688 6.2031,0 11.004,2.1367 16.211,6.5391 l 3.5391,2.9414 72.191,-0.1563 72.277,-0.2148 -0.22656,-5.5547 c -0.67188,-14.375 -4.4297,-17.258 -23.988,-18.371 -5.543,-0.2891 -10.332,-0.7305 -10.488,-0.9492 -0.66016,-0.6016 2.2188,-7.3789 7.0078,-16.836 8.5547,-16.766 20.293,-32.699 27.012,-36.625 2.2695,-1.3086 3.2891,-1.7539 6,-1.7539 0.89844,0 1.9922,0.07 3.3711,0.1445 6.9492,0.3594 10.848,1.9922 14.398,6.0586 2.9531,3.3711 3.7578,6.1914 4.9453,17.496 0.74219,6.8398 1.5469,10.766 3.2539,15.059 8.3516,21.602 33.145,45.469 47.219,45.469 h 0.3125 c 4.8008,-0.07 6.9375,-1.5703 9.6016,-6.7188 2.3633,-4.6562 2.6641,-9.8867 0.81641,-13.523 -0.67188,-1.3086 -4.5,-5.7461 -8.4102,-9.8867 -17.496,-18.156 -22.883,-32.555 -22.883,-61.199 0,-29.074 5.6875,-50.426 18.168,-67.992 1.7656,-2.5195 7.7539,-9.457 13.285,-15.492 17.641,-19.273 21.109,-26.723 21.109,-45.254 -0.0703,-10.715 -0.80469,-16.379 -3.9102,-27.898 -5.2422,-19.848 -3.4805,-29.449 7.5977,-41.855 7.5352,-8.4844 8.1953,-11.438 5.5312,-25.547 -2.9531,-15.434 -4.0547,-22.211 -5.6172,-35.711 -1.9922,-16.992 -3.4688,-20.762 -8.7109,-22.969 -1.4883,-0.66016 -3,-0.97266 -4.5469,-0.97266 -1.8359,0 -3.707,0.45703 -5.6289,1.332 -1.7773,0.81641 -6.4336,4.9453 -11.594,10.246 -9.8164,10.199 -14.543,13.668 -20.891,15.289 -2.7344,0.68359 -5.3516,1.0664 -8.0508,1.0664 -7.3672,0 -15.457,-2.7617 -28.789,-9.4062 -10.547,-5.2422 -13.211,-6.3477 -16.246,-6.3477 h -0.9375 c -2.4961,0 -3.0469,0.38281 -4.3789,2.3516 -2.1484,3.1094 -2.8789,8.8672 -2.2188,17.426 0.58984,9.3594 2.4961,17.195 8.5547,35.594 5.9023,18.023 7.4648,24.348 7.6094,31.285 0.14453,6.9492 -1.4023,11.531 -4.9453,15.133 -4.0547,3.9961 -7.6094,5.1133 -25.922,8.1367 -28.199,4.7148 -46.441,10.117 -63.781,18.758 -34.352,17.23 -60.262,47.855 -76.426,90.527 z"
         id="path1-4" /><path
         d="m 696.29,694.59 -17.484,-60.672 c -1.0078,-3.4453 -0.33594,-7.1523 1.7539,-10.031 2.0898,-2.8906 5.3867,-4.668 8.9766,-4.8008 l 110.76,-4.1289 86.734,-212.77 h 84.625 c 20.941,0 38.051,-16.871 38.051,-38.074 0,-13.559 -7.3906,-25.559 -18.109,-32.219 l -129.86,-69.527 c -3.8516,-2.0391 -8.4102,-3.0703 -12.516,-3.3242 l -55.223,0.25391 c -5.3516,-6.6484 -10.246,-14.566 -13.801,-22.234 -4.0781,-8.6875 -2.3047,-19.176 4.8594,-26.578 4.6328,-4.6094 10.727,-6.6484 16.848,-6.6484 h 95.879 c 12.781,0 23.27,-10.477 23.27,-23.508 0,-12.781 -10.5,-23.27 -23.27,-23.27 l -96.902,-0.008 c -11.746,0 -22.477,2.8203 -31.945,8.1953 7.6797,-66.469002 64.43,-118.090002 132.93,-118.090002 13.043,0 23.508,-10.992 23.508,-23.773 0,-13.031 -10.465,-23.52 -23.508,-23.52 -100.19,0 -181.48,81.289 -181.5,181.250002 0,28.367 6.6602,55.211 18.133,79.246 l -46.234,-0.25391 c -5.375,0 -9.7188,4.3438 -9.7188,9.9727 0,2.8203 1.2734,5.375 3.3125,7.1641 l 63.383,63.121 -76.43,117.57 -481.3,0.0117 c -38.074,0 -69.77,31.441 -71.555,69.266 v 192.5 c 0,3.0586 2.5547,5.3516 5.3633,5.3516 2.293,0 4.332,-1.2969 5.1133,-3.3594 l 35.531,-55.441 v 86.387 l -45.742,72.602 0.25391,190.96 c 0,27.086 21.973,48.793 48.828,48.793 27.086,0 49.066,-21.719 49.066,-48.793 l -0.004,-180.25 55.465,-74.375 v 84.852 l 41.867,71.82 c 11.914,-12.121 25.367,-22.094 40.5,-29.676 13.922,-6.9102 28.414,-11.879 47.258,-16.02 l -41.438,-72.145 44.23,-67.211 h 196.57 v 286.52 c 0,26.832 21.73,48.816 48.805,48.816 27.121,0 49.078,-21.961 49.078,-48.816 l 0.004,-266.33 31.297,-31.309 c -16.441,-12.504 -30.121,-20.508 -30.348,-20.676 -2.6055,-1.5 -4.5117,-3.9453 -5.3633,-6.8125 z"
         id="path2-6" /><path
         d="m 780.42,751.79 -76.883,370.48 c -19.895,7.3555 -25.094,27.551 -25.094,27.551 h 27.336 c 0,-28.57 43.441,-40.645 44.027,-40.645 h 0.19141 l 45.254,-137.36 18.277,61.859 c 32.305,-43.871 93,-56.891 93,-56.891 l 8.2578,14.855 c -53.004,15.996 -79.234,41.52 -92.207,63.07 -3.1562,5.2578 -5.9023,11.172 -8.1484,17.281 -0.23828,0.625 -0.48047,1.668 -0.66016,2.2695 -0.14453,0.3359 -0.23828,1.5234 -0.33594,1.8828 -3.793,11.785 -3.5898,21.406 -3.5898,21.406 h -0.96094 c -0.61328,0 -0.97266,8.0039 -0.97266,13.164 0,0 -84.719,6.4219 -84.719,39.098 h 318.07999 c 0,0 19.367,-9.3711 29.195,-21.516 24.602,-30.301 15.336,-83.629 15.336,-83.629 -23.293,32.723 -46.586,47.242 -59.148,53.207 l -68.85499,-212.84 -127.81,-305.79 -8.4844,46.535 -131.54,4.8945 17.496,60.684 c 0,0.004 45.863,26.574 72.961,60.438 z"
         id="path3" /><path
         d="m 274.93,139.03 c -1.2617,-0.21484 -2.6406,-0.32422 -4.0938,-0.32422 -7.1992,0 -16.645,2.7617 -26.004,6.457 -6.3945,-30.145 -58.141,-96.191 -58.141,-103.13 92.891,-7.8008 149.44,117.97 153.24,124.39 -0.0352,1.1875 -0.50391,2.2812 -1.1875,3.3008 -6.4922,3.2148 -13.547,4.1523 -17.508,4.3906 -8.0625,-9.25 -29.867,-32.648 -46.305,-35.086 z"
         id="path4-6" /><path
         d="m 273.78,146.32 c 16.609,2.375 44.113,35.242 44.113,35.242 0,0 0.27734,0.0117 0.79297,0.0117 4.4883,0 26.496,-0.83984 36.828,-16.934 0.68359,-8.4844 -20.676,-27.445 21.324,-32.867 18.121,-4.0664 106.49,-47.137002 120.72,-69.168002 58.309,134.240002 -68.473,153.560002 -68.473,153.560002 0,0 -2.375,8.8086 -7.1289,13.906 -1.5859,1.7031 -5.2422,2.2578 -9.4219,2.2578 -7.9688,0 -17.797,-2.0508 -18.648,-2.2422 1.4414,0.55078 24.672,9.168 35.52,10.152 0.81641,0.0703 2.0039,0.10938 3.5039,0.10938 19.32,0 91.078,-5.5312 91.078,-5.5312 -17.27,57.254 -55.945,72.336 -91.859,72.336 -39.961,0 -76.5,-18.637 -76.5,-18.637 l 31.414,-8.2695 c 0,0 -41.004,-1.5977 -54.254,-5.7617 -64.199,-20.27 -71.52,-70.512 -71.52,-70.512 0,0 -1.1758,-23.449 -48.816,-34.246 4.8125,-3.6367 41.125,-23.641 58.379,-23.641 1.0625,0.004 2.0469,0.0742 2.9492,0.23047 z"
         id="path5-0" /></g></g><g
     inkscape:groupmode="layer"
     id="layer2"
     inkscape:label="Vrstva 2" /></svg>
