<?xml version="1.0" encoding="UTF-8" standalone="no"?>
<!-- Created with Inkscape (http://www.inkscape.org/) -->

<svg
   width="210mm"
   height="297mm"
   viewBox="0 0 210 297"
   version="1.1"
   id="svg1"
   inkscape:version="1.3.2 (091e20e, 2023-11-25, custom)"
   sodipodi:docname="strong_brush.svg"
   xmlns:inkscape="http://www.inkscape.org/namespaces/inkscape"
   xmlns:sodipodi="http://sodipodi.sourceforge.net/DTD/sodipodi-0.dtd"
   xmlns="http://www.w3.org/2000/svg"
   xmlns:svg="http://www.w3.org/2000/svg">
  <sodipodi:namedview
     id="namedview1"
     pagecolor="#505050"
     bordercolor="#ffffff"
     borderopacity="1"
     inkscape:showpageshadow="0"
     inkscape:pageopacity="0"
     inkscape:pagecheckerboard="1"
     inkscape:deskcolor="#505050"
     inkscape:document-units="mm"
     inkscape:zoom="0.70110129"
     inkscape:cx="397.23219"
     inkscape:cy="561.25984"
     inkscape:window-width="2400"
     inkscape:window-height="1271"
     inkscape:window-x="-9"
     inkscape:window-y="-9"
     inkscape:window-maximized="1"
     inkscape:current-layer="layer1" />
  <defs
     id="defs1" />
  <g
     inkscape:label="Vrstva 1"
     inkscape:groupmode="layer"
     id="layer1">
    <path
       style="fill:#000000;fill-opacity:1;fill-rule:evenodd;stroke:#000000;stroke-width:3;stroke-dasharray:none;stroke-opacity:1"
       d="M 41.6882,242.96201 C 28.03305,238.89938 21.14039,235.19448 14.05451,228.10856 8.98067,223.03467 5.8311,218.08864 3.79754,212.00122 2.45507,207.98252 1.5,202.49627 1.5,198.8032 c 0,-7.61278 3.07237,-17.67444 8.11813,-26.58601 1.3969,-2.46709 2.06804,-4.07357 2.06778,-4.94946 -2.2e-4,-0.71324 -0.67051,-6.6462 -1.48956,-13.18435 C 7.90998,135.83173 7.8069,134.18061 8.01484,119.13819 8.157,108.85605 8.44076,102.9058 9.19197,94.456952 c 1.90394,-21.413837 7.57036,-74.743799 8.56086,-80.571154 0.73848,-4.3446931 1.4537,-5.8941041 3.76766,-8.1619641 3.13439,-3.071913 5.74088,-4.246856 9.36953,-4.223536 3.9228,0.02522 6.6393,1.098267 9.22775,3.645083 2.45755,2.418019 3.19309,3.961019 3.8682,8.1149161 1.73763,10.69099 8.30363,73.811283 9.62409,92.518133 0.22709,3.21718 0.42489,10.51953 0.43958,16.22744 0.0288,11.19222 -0.24307,14.77669 -2.59019,34.15311 -0.72914,6.01925 -1.24725,11.45356 -1.15136,12.07624 0.0959,0.62268 1.02835,2.58131 2.07221,4.35251 4.27456,7.25313 7.08861,16.19032 7.4821,23.76248 0.39545,7.61012 -0.94017,13.00685 -5.69724,23.02033 -4.61526,9.71493 -5.7789,13.25602 -6.63009,20.17614 -0.22884,1.86044 -0.5974,3.60112 -0.81905,3.86817 -0.55911,0.67369 -1.5376,0.58556 -5.02782,-0.45284 z m 2.01112,-3.70121 c 0.22294,-0.26863 0.76949,-2.17912 1.21457,-4.24556 0.889,-4.12751 2.36117,-8.1807 5.0655,-13.94648 2.67124,-5.69511 4.58574,-10.40633 5.55488,-13.66937 0.75777,-2.55135 0.87148,-3.75024 0.86905,-9.16226 -0.003,-6.95693 -0.49961,-9.86683 -2.64086,-15.47789 -1.45055,-3.80104 -5.42864,-11.8506 -6.52502,-13.20318 L 46.47269,168.6126 H 30.70336 14.93406 l -3.06551,6.03812 c -6.5268,12.85569 -8.38319,23.45047 -5.88505,33.58704 2.76228,11.20839 10.86665,20.80674 22.57811,26.74019 4.00984,2.03153 4.14105,0.89765 0.45919,-3.96887 -2.98051,-3.93953 -6.1527,-10.10195 -7.83871,-15.22777 -1.23478,-3.754 -2.44295,-10.62884 -2.25652,-12.84039 0.24463,-2.9018 2.55489,-2.71955 3.02596,0.23871 0.14554,0.91393 0.54729,3.44482 0.89278,5.6242 1.90558,12.02062 8.78425,23.57549 17.47171,29.34922 2.65205,1.76256 2.79974,1.81092 3.3833,1.10775 z m 3.0443,-74.42202 c 0.54795,-0.55112 3.80291,-27.06801 3.81013,-31.03971 l 0.003,-1.60387 H 33.2525 c -9.51733,0 -18.34806,0.1091 -19.62388,0.24245 l -2.31966,0.24245 v 1.27781 c 0,1.81239 0.96415,10.87266 2.28217,21.44631 0.90072,7.22585 1.25989,9.155 1.77633,9.54096 0.81304,0.60762 30.76731,0.50604 31.37622,-0.1064 z m 4.18835,-40.28557 C 50.92497,110.43886 48.98131,86.133346 44.87357,48.793676 41.79673,20.825008 40.66749,12.479943 39.63921,10.111972 38.17247,6.7342409 34.07884,4.7201049 29.54168,5.1437929 c -2.78236,0.259821 -3.57992,0.615895 -5.50757,2.458884 -2.28891,2.188406 -2.59482,3.7356311 -5.17038,26.1491631 -4.84761,42.186195 -7.24778,68.63603 -7.78065,85.74262 -0.22447,7.20561 -0.18151,8.67648 0.26167,8.95705 0.29165,0.18464 9.31759,0.33829 20.05978,0.34147 l 19.52953,0.006 z"
       id="path10"
       inkscape:export-filename="strong_brush.png"
       inkscape:export-xdpi="96"
       inkscape:export-ydpi="96" />
  </g>
</svg>
