<?xml version="1.0" encoding="UTF-8" standalone="no"?>
<!-- Created with Inkscape (http://www.inkscape.org/) -->

<svg
   width="210mm"
   height="297mm"
   viewBox="0 0 210 297"
   version="1.1"
   id="svg1"
   inkscape:version="1.3.2 (091e20e, 2023-11-25, custom)"
   sodipodi:docname="week_brush.svg"
   xmlns:inkscape="http://www.inkscape.org/namespaces/inkscape"
   xmlns:sodipodi="http://sodipodi.sourceforge.net/DTD/sodipodi-0.dtd"
   xmlns="http://www.w3.org/2000/svg"
   xmlns:svg="http://www.w3.org/2000/svg">
  <sodipodi:namedview
     id="namedview1"
     pagecolor="#505050"
     bordercolor="#ffffff"
     borderopacity="1"
     inkscape:showpageshadow="0"
     inkscape:pageopacity="0"
     inkscape:pagecheckerboard="1"
     inkscape:deskcolor="#505050"
     inkscape:document-units="mm"
     inkscape:zoom="0.70110129"
     inkscape:cx="397.23219"
     inkscape:cy="447.15365"
     inkscape:window-width="2400"
     inkscape:window-height="1271"
     inkscape:window-x="-9"
     inkscape:window-y="-9"
     inkscape:window-maximized="1"
     inkscape:current-layer="layer1" />
  <defs
     id="defs1" />
  <g
     inkscape:label="Vrstva 1"
     inkscape:groupmode="layer"
     id="layer1">
    <path
       style="fill:#000000;fill-opacity:1;fill-rule:evenodd;stroke:#000000;stroke-width:3;stroke-dasharray:none;stroke-opacity:1"
       d="m 12.624538,219.86195 c -1.17552,-1.56288 -4.4388502,-8.0753 -5.9397002,-11.85347 -2.39721,-6.03464 -3.09188,-9.58958 -3.12595,-15.99702 -0.0344,-6.46654 0.34973,-8.56492 2.43933,-13.32589 l 1.18297,-2.69528 -0.6153,-6.04691 c -0.33842,-3.32581 -1.03837,-10.12265 -1.55545,-15.1041 -3.24818,-31.29202 -3.94493,-45.59705 -3.28556,-67.456467 0.60931,-20.20019 1.49856,-34.17898 3.67909,-57.83451 1.08326,-11.751745 2.26115,-21.7236278 2.77474,-23.4905448 0.91997,-3.165028 3.1830902,-4.816603 6.2025102,-4.526475 1.61145,0.154839 2.10431,0.407383 3.30302,1.69246 1.67965,1.800674 2.05382,3.005571 2.78401,8.9649618 0.94389,7.703472 3.22756,35.732188 4.56603,56.041298 0.8162,12.3843 1.12661,39.681417 0.56655,49.820127 -0.4626,8.37448 -1.85574,24.38147 -3.8119,43.79831 -0.6184,6.1382 -1.12436,11.97066 -1.12436,12.96102 0,1.11279 0.53983,3.33678 1.41313,5.82185 l 1.41314,4.02119 0.002,6.79288 c 0.002,6.20911 -0.0842,7.10099 -1.00215,10.37802 -1.54384,5.51171 -6.99747,17.67993 -8.4726,18.90418 -0.32845,0.27259 -0.72077,0.0289 -1.39359,-0.86563 z m 1.44947,-5.11898 c 0.58901,-0.41766 2.95976,-5.85716 4.2933,-9.85062 1.80994,-5.42016 2.42186,-9.6321 2.17292,-14.9565 -0.22241,-4.75676 -0.4337,-5.84094 -2.00415,-10.28367 l -0.96715,-2.73602 h -3.89711 -3.8971102 l -0.8098,2.16438 c -3.99731,10.68374 -3.19486,19.90617 2.9721702,34.15868 0.74368,1.71872 1.2908,2.10372 2.13693,1.50375 z m 3.5715,-41.90753 c 0,-0.5367 2.61479,-29.60998 2.8489,-31.67628 l 0.22447,-1.98126 h -6.82004 -6.8200402 l -0.003,2.35864 c -0.003,2.26787 2.55319,30.1672 2.85232,31.13406 0.1659902,0.53653 7.7172802,0.69782 7.7172802,0.16484 z m 3.54113,-39.22393 c 1.34553,-14.15107 1.89654,-32.75066 1.38163,-46.638047 -0.90419,-24.38663 -2.71632,-50.21656 -5.12746,-73.086537 -0.79926,-7.5811138 -1.47821,-9.4345618 -3.45608,-9.4345618 -1.62961,0 -2.59858,1.453957 -3.06675,4.601718 C 9.2848878,20.034205 7.3367578,42.435923 5.4928878,71.437753 c -0.63995,10.06568 -0.64695,45.381777 -0.0107,54.154377 0.67483,9.30494 0.79568,10.11705 1.53477,10.31282 0.34537,0.0915 3.6203502,0.18603 7.2777302,0.21011 l 6.64977,0.0438 z"
       id="path9"
       inkscape:export-filename="week_brush.png"
       inkscape:export-xdpi="96"
       inkscape:export-ydpi="96" />
  </g>
</svg>
